<svg width="313" height="362" viewBox="0 0 313 362" fill="none" xmlns="http://www.w3.org/2000/svg">
<path d="M160.76 1.23297C151.601 2.25059 141.832 4.01447 139.933 4.96425C137.151 6.38892 136.541 8.01711 137.355 11.6127C138.508 16.7686 140.136 20.2286 141.764 20.8391C142.714 21.1783 146.038 20.907 150.652 20.1607C154.722 19.4823 161.371 18.6004 165.373 18.2612C170.461 17.8541 173.039 17.3114 173.786 16.5651C175.21 15.2083 175.821 6.66028 174.735 4.01447C173.243 0.486713 171.275 0.0796642 160.76 1.23297Z" fill="#34A7D4"/>
<path d="M184.843 1.70775C183.012 3.20026 182.265 6.8637 182.808 11.9518C183.351 16.565 185.047 18.1254 189.524 18.1254C191.22 18.1254 196.851 18.7359 202.075 19.4822C233.011 24.0276 260.351 36.239 284.231 56.1166C287.216 58.5588 290.201 60.7976 290.879 61.069C292.643 61.7474 295.357 60.1192 299.02 56.1844C304.176 50.6892 303.566 49.1967 292.44 40.3095C265.303 18.6681 234.707 5.77824 200.108 1.50423C189.457 0.1474 186.675 0.21524 184.843 1.70775Z" fill="#383026"/>
<path d="M88.8496 24.299C65.3086 37.7995 44.7527 56.8629 29.5562 79.1827C20.5333 92.4796 11.8496 109.236 11.8496 113.375C11.8496 115.749 13.6813 117.445 18.2267 119.141C22.2293 120.634 23.8575 120.837 25.7571 120.159C26.2998 119.888 28.81 115.681 31.2522 110.797C37.2223 98.8567 41.4963 91.9369 48.7553 82.2356C61.3738 65.4788 79.284 49.8074 98.0082 39.1563C105.606 34.8145 106.013 34.0004 103.028 27.6233C100.858 22.8744 98.8901 20.8391 96.6514 20.8391C95.7016 20.8391 92.1738 22.3995 88.8496 24.299Z" fill="#383026"/>
<path d="M159.403 31.3544C153.433 32.1685 147.87 33.1861 146.988 33.661C144.953 34.7465 144.546 36.9853 145.428 42.0055C145.971 45.1941 146.649 46.7544 148.142 48.1791L150.109 50.1465L161.371 48.654C171.886 47.2293 172.768 46.9579 174.125 45.3297C175.346 43.7694 175.482 42.9553 175.143 38.6134C174.736 33.4575 173.582 30.7438 171.479 30.2011C170.801 30.0654 165.373 30.5403 159.403 31.3544Z" fill="#34A7D4"/>
<path d="M184.369 31.8293C183.012 33.254 182.809 34.2038 182.809 39.0205C182.809 45.6011 183.691 46.9579 188.372 47.5685C190 47.772 194.07 48.3148 197.394 48.7218C220.054 51.5712 246.444 63.0364 263.879 77.6223C269.646 82.439 270.595 82.846 272.902 81.6249C273.92 81.0822 276.226 79.1148 277.99 77.2152C283.214 71.6522 282.535 70.024 271.342 61.476C248.615 44.1086 217.95 32.1007 192.306 30.5403C186.133 30.2011 185.794 30.269 184.369 31.8293Z" fill="#383026"/>
<path d="M104.181 49.7394C84.6429 60.5941 65.9187 78.165 52.5539 98.0425C47.2623 106.048 39.6641 120.769 39.6641 123.212C39.6641 124.297 40.3425 125.722 41.1566 126.536C43.3275 128.503 49.6367 130.878 52.1469 130.606C54.1143 130.403 54.5892 129.724 58.7953 121.787C71.4817 97.6355 87.0174 80.8108 109.473 66.7676C113.068 64.5289 116.189 62.3579 116.461 61.9509C118.631 58.7624 113.001 47.2971 109.269 47.2971C108.862 47.2971 106.556 48.3826 104.181 49.7394Z" fill="#383026"/>
<path d="M162.863 61.2724C153.026 62.6292 151.195 64.3931 152.959 70.9059C155.129 78.8433 156.215 79.5896 164.695 78.5041C171.276 77.6222 174.261 76.5367 174.939 74.7728C175.143 74.1623 175.346 71.5164 175.346 69.0063C175.346 65.1394 175.075 64.0539 173.854 62.6292C171.751 60.3905 170.597 60.2548 162.863 61.2724Z" fill="#34A7D4"/>
<path d="M186.404 60.6621C183.691 61.137 182.809 63.3758 182.809 69.4136C182.809 74.5696 182.944 75.1123 184.505 76.3335C185.522 77.1476 187.829 77.826 190.407 78.0973C196.92 78.8436 206.824 81.1502 213.269 83.389C224.056 87.1881 232.536 91.8691 245.494 101.231C247.258 102.52 249.361 103.606 250.107 103.606C251.668 103.606 258.723 97.1608 259.537 94.922C260.487 92.5476 259.198 90.5123 254.585 86.8489C237.082 72.9414 214.491 63.3079 194.681 61.2048C192.442 61.0013 190 60.7299 189.254 60.5943C188.507 60.5264 187.218 60.5264 186.404 60.6621Z" fill="#383026"/>
<path d="M114.561 78.9114C96.2439 90.3766 80.4368 107.744 70.8033 126.807C66.5972 135.22 67.1399 136.848 75.1452 139.833C81.3188 142.207 82.1328 141.8 86.1355 134.338C95.4976 117.038 108.523 102.859 124.127 93.1581C128.876 90.1731 129.893 89.0198 129.893 86.7132C129.893 84.7458 126.976 78.0973 125.348 76.3334C123.516 74.2982 120.938 74.9087 114.561 78.9114Z" fill="#383026"/>
<path d="M165.576 91.3943C161.913 92.0727 159.606 94.7185 160.217 97.7035C160.963 101.842 163.134 106.659 164.559 107.541C165.576 108.151 167.069 108.287 169.308 108.015C174.124 107.337 175.345 105.505 175.345 99.0603C175.345 94.6507 175.142 93.8366 173.649 92.4119C171.953 90.648 170.393 90.4445 165.576 91.3943Z" fill="#34A7D4"/>
<path d="M185.049 91.5301C182.946 92.5477 181.86 96.2111 182.335 101.164C182.81 106.048 183.963 107.269 188.712 107.948C199.974 109.576 212.321 114.46 221.615 120.973C224.804 123.212 227.857 124.772 228.806 124.772C231.181 124.772 238.44 117.31 238.44 114.867C238.44 112.29 234.437 108.762 225.889 103.674C216.866 98.3142 207.979 94.7864 197.667 92.4798C189.051 90.5803 187.287 90.4446 185.049 91.5301Z" fill="#383026"/>
<path d="M132.062 103.673C127.721 105.844 125.143 108.558 125.143 110.932C125.143 113.375 129.552 119.005 132.741 120.566C134.573 121.448 134.912 121.38 137.761 119.887C141.289 117.988 142.781 116.224 142.781 113.985C142.781 111.407 138.779 103.877 136.947 102.995C134.912 102.045 135.522 101.977 132.062 103.673Z" fill="#509BC6"/>
<path d="M7.23537 126.197C5.67502 127.893 2.55431 139.426 0.654755 150.891C-0.56639 158.354 -0.159341 160.864 2.55431 161.881C3.97898 162.424 10.3561 162.899 13.3411 162.695C15.3085 162.56 16.5975 159.71 17.6829 153.062C18.2257 149.534 19.4468 143.768 20.3288 140.104C23.0424 129.453 22.771 128.707 15.7155 126.061C10.7631 124.229 9.06709 124.229 7.23537 126.197Z" fill="#509BC6"/>
<path d="M102.145 135.016C99.9742 136.102 96.7856 141.393 96.7178 144.039C96.6499 146.889 97.7354 148.042 102.281 150.077C108.454 152.791 110.625 152.18 113.271 147.024C115.171 143.293 114.424 140.986 110.218 137.798C105.673 134.406 104.248 133.931 102.145 135.016Z" fill="#509BC6"/>
<path d="M35.0505 136.169C34.3042 136.983 33.2187 139.697 32.676 142.139C28.2663 161.745 28.5377 160.389 29.7588 162.288C31.1835 164.459 32.676 165.002 38.1033 165.68C44.8196 166.427 45.3624 165.477 49.2293 146.549C50.3826 140.782 49.7042 139.086 45.498 136.983C40.6135 134.541 36.8143 134.27 35.0505 136.169Z" fill="#509BC6"/>
<path d="M167.34 137.526C159.539 139.562 153.433 143.225 147.124 149.399C128.942 167.444 128.942 194.988 147.192 213.17C156.825 222.803 167.476 226.873 181.384 226.263C194.274 225.652 204.857 220.361 213.608 210.184C222.156 200.076 226.023 185.083 223.242 172.193C219.646 155.369 205.874 141.054 189.525 137.187C183.487 135.762 173.446 135.966 167.34 137.526Z" fill="#383026"/>
<path d="M63.5433 146.617C61.9829 148.652 58.9979 161.881 59.6085 164.256C60.1512 166.494 62.7292 167.716 67.6138 168.326C72.0235 168.801 74.4658 167.987 75.4834 165.748C76.7724 162.831 78.5362 152.723 78.0613 150.823C77.7221 149.331 76.7045 148.516 73.2446 146.956C67.8173 144.514 65.3072 144.446 63.5433 146.617Z" fill="#509BC6"/>
<path d="M95.0224 192.546C93.1907 192.817 91.2233 193.563 90.6127 194.174C87.085 197.702 94.0048 217.986 103.57 231.962C108.726 239.56 115.511 246.751 117.478 246.751C119.445 246.751 121.82 244.716 124.737 240.374C127.79 236.032 127.654 235.218 123.584 230.605C116.46 222.599 111.983 214.798 108.591 204.621C107.234 200.619 106.148 196.888 106.148 196.277C106.148 195.666 105.402 194.377 104.452 193.495C102.689 191.664 101.06 191.528 95.0224 192.546Z" fill="#383026"/>
<path d="M65.1044 195.259C61.5088 195.802 59.3379 197.634 59.3379 200.008C59.3379 202.586 62.1872 214.526 63.137 216.019C63.6797 216.901 64.833 217.715 65.7828 217.986C67.7502 218.461 74.67 216.019 76.841 214.051C78.7405 212.22 78.7405 210.32 76.9088 202.586C75.0093 194.377 73.9916 193.767 65.1044 195.259Z" fill="#509BC6"/>
<path d="M35.1186 197.837C32.1336 198.38 29.7591 199.94 29.1486 201.975C28.945 202.654 29.8948 208.149 31.2517 214.255C33.8975 226.263 34.9829 228.434 38.375 228.434C41.0887 228.434 47.2622 225.923 48.6869 224.227C50.2472 222.328 50.1794 220.36 47.805 209.574C45.0913 197.159 44.2094 196.412 35.1186 197.837Z" fill="#509BC6"/>
<path d="M5.06449 200.415C0.654803 200.958 0.112071 202.111 0.51912 209.438C1.4689 225.992 11.713 254.96 23.7887 275.041C32.6759 289.83 50.7218 311.607 56.8275 314.932C58.9984 316.085 59.4733 316.153 61.1015 315.203C63.4081 313.982 68.8354 306.791 68.8354 304.959C68.8354 304.145 65.9182 300.414 61.8478 296.004C52.0786 285.488 48.3473 280.875 42.1737 271.513C30.098 253.196 21.2108 230.808 17.5473 209.438C15.987 200.008 14.9693 199.262 5.06449 200.415Z" fill="#383026"/>
<path d="M75.0764 223.278C66.6641 226.466 66.3249 228.23 72.2949 238.949C82.539 257.47 94.8861 270.97 111.914 282.368C122.972 289.762 124.194 289.762 127.789 282.3C131.113 275.312 130.842 274.498 123.176 269.342C106.691 258.216 95.9037 246.615 87.22 230.469C83.828 224.228 81.7249 221.582 80.0967 221.717C79.6896 221.717 77.4509 222.464 75.0764 223.278Z" fill="#383026"/>
<path d="M226.432 239.085C223.515 240.442 220.597 243.698 220.665 245.53C220.665 247.565 225.211 255.367 226.974 256.249C228.738 257.199 230.638 256.588 234.03 253.942C239.593 249.668 239.796 247.769 235.387 242.816C231.656 238.678 229.281 237.66 226.432 239.085Z" fill="#3F7AA8"/>
<path d="M129.553 246.208C125.686 250.55 124.94 252.314 125.957 254.553C126.907 256.656 132.673 260.319 135.048 260.319C138.033 260.319 139.186 259.166 141.086 254.281C143.325 248.583 143.053 246.751 139.593 244.376C135.523 241.663 133.284 242.07 129.553 246.208Z" fill="#3F7AA8"/>
<path d="M204.382 251.161C193.867 254.824 187.557 255.774 175.074 255.502L164.288 255.231L163.067 256.927C162.388 257.877 161.303 260.523 160.76 262.829C159.471 267.782 159.946 269.138 163.338 270.97C166.594 272.802 188.982 272.734 196.716 270.902C210.081 267.85 217.34 264.797 218.764 261.812C219.375 260.319 219.239 259.505 217.408 255.842C215.576 252.11 212.659 248.65 211.37 248.854C211.166 248.854 207.978 249.939 204.382 251.161Z" fill="#383026"/>
<path d="M242.373 263.847C239.252 266.221 236.335 268.935 235.86 269.953C235.114 271.581 235.182 272.191 236.674 275.109C239.252 280.129 241.627 282.707 243.798 282.707C246.036 282.707 258.316 273.752 259.401 271.31C260.622 268.664 260.283 267.85 256.28 263.643C251.125 258.216 249.836 258.216 242.373 263.847Z" fill="#3F7AA8"/>
<path d="M68.6319 263.779C67.5464 264.051 65.0363 265.747 63.0011 267.443C57.3702 272.26 57.5738 272.938 67.5464 283.86C77.3834 294.647 78.1297 294.919 83.2178 289.627C86.6777 286.031 87.831 284.2 87.831 282.029C87.831 280.468 73.6522 264.39 71.6169 263.644C71.0064 263.44 69.6495 263.508 68.6319 263.779Z" fill="#3F7AA8"/>
<path d="M190.95 284.81C184.165 285.896 182.809 287.456 182.809 294.24C182.809 297.768 183.08 298.582 184.776 300.481L186.743 302.652L193.731 301.906C204.179 300.753 205.943 298.718 203.5 290.441C201.669 284.064 200.108 283.385 190.95 284.81Z" fill="#3F7AA8"/>
<path d="M295.562 292.951C292.238 294.579 290.474 296.818 289.32 300.82C288.438 303.805 284.3 307.537 271.546 316.831C268.697 318.934 266.186 321.241 265.915 321.987C265.169 324.497 270.8 333.656 273.717 334.605C274.395 334.809 276.023 334.47 277.245 333.859C280.908 332.027 291.898 324.158 296.851 319.884C299.768 317.374 302.075 315.949 303.16 315.949C305.399 315.949 310.419 312.082 311.912 309.165C313.743 305.637 313.201 299.871 310.758 296.682C307.027 291.73 300.989 290.305 295.562 292.951Z" fill="#3F7AA8"/>
<path d="M229.755 305.569C216.865 311.065 216.458 311.743 220.257 320.698C221.75 324.158 223.106 325.447 225.345 325.447C227.245 325.447 246.444 317.577 248.14 316.085C249.768 314.66 249.565 311.879 247.462 307.401C245.833 303.873 242.713 300.956 240.813 301.092C240.474 301.092 235.454 303.127 229.755 305.569Z" fill="#3F7AA8"/>
<path d="M71.956 315.271C67.4785 320.156 66.7322 322.123 68.6318 324.633C71.0741 328.025 91.7657 341.322 95.7683 342.136C98.5498 342.679 100.856 340.508 103.095 335.352C105.537 329.585 105.13 328.025 100.653 325.583C98.7534 324.565 92.919 320.902 87.6274 317.442C82.4036 314.05 77.5868 311.2 76.9084 311.2C76.2979 311.2 74.0591 313.032 71.956 315.271Z" fill="#3F7AA8"/>
<path d="M148.277 314.389C147.462 315.067 146.377 317.306 145.834 319.341C143.324 328.771 144.342 329.721 158.453 331.553C171.614 333.249 171.682 333.249 173.649 331.213C175.142 329.789 175.345 328.975 175.345 324.294C175.345 321.376 175.074 318.663 174.802 318.324C173.446 316.424 171.207 315.746 162.32 314.524C150.447 312.964 150.04 312.964 148.277 314.389Z" fill="#3F7AA8"/>
<path d="M247.462 330.264C233.012 337.184 212.727 342.746 195.428 344.51C183.691 345.664 163.067 344.985 151.806 343.086C140.612 341.186 140.137 341.39 137.966 348.513C136.338 353.872 136.609 356.111 138.916 357.672C142.443 359.978 155.876 361.539 174.668 361.878C193.46 362.285 200.719 361.742 213.948 359.232C233.419 355.569 262.726 344.307 264.287 339.897C264.694 338.812 264.287 337.251 262.794 334.402C260.42 329.585 257.774 326.804 255.806 326.872C255.06 326.872 251.261 328.432 247.462 330.264Z" fill="#383026"/>
</svg>
