<svg width="78" height="40" viewBox="0 0 78 40" fill="none" xmlns="http://www.w3.org/2000/svg">
<path d="M17.789 0.0770833C16.7755 0.189694 15.6945 0.384886 15.4843 0.48999C15.1765 0.647645 15.1089 0.827822 15.199 1.22571C15.3266 1.79627 15.5068 2.17915 15.687 2.24672C15.7921 2.28425 16.1599 2.25422 16.6704 2.17164C17.1209 2.09657 17.8566 1.99897 18.2995 1.96144C18.8626 1.91639 19.1479 1.85633 19.2304 1.77375C19.3881 1.6236 19.4557 0.677674 19.3355 0.384886C19.1704 -0.00549769 18.9527 -0.0505421 17.789 0.0770833Z" fill="#34A7D4"/>
<path d="M20.4553 0.129811C20.2526 0.294974 20.1701 0.700372 20.2301 1.26343C20.2902 1.77393 20.4779 1.9466 20.9733 1.9466C21.161 1.9466 21.7841 2.01416 22.3622 2.09675C25.7856 2.59974 28.8111 3.95107 31.4537 6.15073C31.784 6.421 32.1143 6.66874 32.1894 6.69877C32.3846 6.77385 32.6849 6.59367 33.0903 6.15824C33.6608 5.55014 33.5933 5.38498 32.362 4.40151C29.3591 2.00666 25.9733 0.580254 22.1445 0.107289C20.9658 -0.0428586 20.658 -0.0353513 20.4553 0.129811Z" fill="white"/>
<path d="M9.83143 2.62984C7.22636 4.12381 4.95163 6.23338 3.26997 8.70331C2.27149 10.1748 1.31055 12.0291 1.31055 12.487C1.31055 12.7498 1.51325 12.9375 2.01624 13.1252C2.45918 13.2903 2.63935 13.3128 2.84956 13.2378C2.90962 13.2077 3.18739 12.7423 3.45766 12.2017C4.11831 10.8805 4.59127 10.1147 5.39456 9.04114C6.79094 7.18682 8.77288 5.45261 10.8449 4.27395C11.6857 3.79348 11.7308 3.70339 11.4005 2.9977C11.1602 2.47218 10.9425 2.24696 10.6948 2.24696C10.5897 2.24696 10.1993 2.41963 9.83143 2.62984Z" fill="white"/>
<path d="M17.6401 3.41069C16.9795 3.50078 16.3639 3.61339 16.2663 3.66594C16.041 3.78606 15.996 4.0338 16.0936 4.58935C16.1537 4.9422 16.2287 5.11487 16.3939 5.27252L16.6116 5.49023L17.8578 5.32507C19.0215 5.16742 19.1191 5.13739 19.2692 4.95721C19.4044 4.78454 19.4194 4.69445 19.3818 4.21398C19.3368 3.64342 19.2092 3.34312 18.9764 3.28306C18.9014 3.26805 18.3008 3.3206 17.6401 3.41069Z" fill="#34A7D4"/>
<path d="M20.4031 3.463C20.253 3.62066 20.2305 3.72576 20.2305 4.25879C20.2305 4.987 20.3281 5.13715 20.8461 5.20472C21.0263 5.22724 21.4767 5.2873 21.8446 5.33234C24.352 5.64765 27.2724 6.9164 29.2018 8.53049C29.8399 9.06351 29.945 9.10856 30.2003 8.97342C30.3129 8.91336 30.5681 8.69565 30.7633 8.48544C31.3414 7.86984 31.2663 7.68966 30.0276 6.74373C27.5126 4.82184 24.1193 3.49303 21.2815 3.32036C20.5983 3.28283 20.5608 3.29033 20.4031 3.463Z" fill="white"/>
<path d="M11.5282 5.44484C9.36607 6.64602 7.29403 8.59043 5.81507 10.7901C5.2295 11.676 4.38867 13.3051 4.38867 13.5753C4.38867 13.6955 4.46375 13.8531 4.55383 13.9432C4.79407 14.1609 5.49226 14.4237 5.77003 14.3936C5.98774 14.3711 6.0403 14.296 6.50575 13.4177C7.90963 10.7451 9.62882 8.88322 12.1138 7.32919C12.5117 7.08145 12.857 6.84121 12.887 6.79617C13.1273 6.44332 12.5042 5.17457 12.0912 5.17457C12.0462 5.17457 11.791 5.29469 11.5282 5.44484Z" fill="white"/>
<path d="M18.0233 6.72146C16.9347 6.87161 16.732 7.0668 16.9272 7.78751C17.1674 8.66587 17.2876 8.74845 18.226 8.62833C18.9542 8.53074 19.2845 8.41062 19.3596 8.21543C19.3821 8.14786 19.4046 7.85507 19.4046 7.5773C19.4046 7.14938 19.3746 7.02926 19.2395 6.87161C19.0067 6.62386 18.8791 6.60885 18.0233 6.72146Z" fill="#34A7D4"/>
<path d="M20.6284 6.65359C20.3281 6.70614 20.2305 6.95388 20.2305 7.62204C20.2305 8.1926 20.2455 8.25266 20.4182 8.38779C20.5308 8.47788 20.786 8.55296 21.0713 8.58299C21.792 8.66557 22.8881 8.92082 23.6013 9.16856C24.795 9.58898 25.7334 10.107 27.1673 11.143C27.3625 11.2856 27.5952 11.4058 27.6778 11.4058C27.8505 11.4058 28.6312 10.6926 28.7213 10.4448C28.8264 10.1821 28.6838 9.95684 28.1733 9.55144C26.2364 8.01242 23.7364 6.94638 21.5443 6.71365C21.2965 6.69113 21.0263 6.6611 20.9437 6.64608C20.8611 6.63857 20.7184 6.63857 20.6284 6.65359Z" fill="white"/>
<path d="M12.6782 8.67331C10.6512 9.94205 8.90197 11.8639 7.83592 13.9735C7.37046 14.9044 7.43052 15.0846 8.31639 15.4149C8.99957 15.6777 9.08965 15.6327 9.53259 14.8068C10.5686 12.8925 12.01 11.3234 13.7367 10.2499C14.2622 9.91953 14.3749 9.79191 14.3749 9.53666C14.3749 9.31894 14.052 8.58322 13.8719 8.38803C13.6692 8.1628 13.3839 8.23037 12.6782 8.67331Z" fill="white"/>
<path d="M18.3226 10.0546C17.9172 10.1297 17.662 10.4225 17.7296 10.7528C17.8121 11.2108 18.0524 11.7438 18.21 11.8414C18.3226 11.909 18.4878 11.924 18.7356 11.8939C19.2686 11.8189 19.4037 11.6162 19.4037 10.903C19.4037 10.415 19.3812 10.3249 19.216 10.1672C19.0283 9.97205 18.8557 9.94953 18.3226 10.0546Z" fill="#34A7D4"/>
<path d="M20.4785 10.0694C20.2458 10.182 20.1257 10.5874 20.1782 11.1355C20.2308 11.676 20.3584 11.8111 20.8839 11.8862C22.1302 12.0664 23.4965 12.6069 24.525 13.3276C24.8779 13.5754 25.2157 13.748 25.3208 13.748C25.5835 13.748 26.3868 12.9222 26.3868 12.652C26.3868 12.3667 25.9439 11.9763 24.998 11.4133C23.9995 10.8202 23.016 10.4298 21.8749 10.1745C20.9215 9.96433 20.7263 9.94931 20.4785 10.0694Z" fill="white"/>
<path d="M14.6134 11.4134C14.1329 11.6536 13.8477 11.9539 13.8477 12.2167C13.8477 12.487 14.3356 13.1101 14.6885 13.2827C14.8912 13.3803 14.9287 13.3728 15.244 13.2077C15.6344 12.9975 15.7996 12.8023 15.7996 12.5545C15.7996 12.2692 15.3566 11.4359 15.1539 11.3383C14.9287 11.2332 14.9963 11.2257 14.6134 11.4134Z" fill="#509BC6"/>
<path d="M39.4256 12.4568C38.4421 12.7045 37.9016 13.3952 37.9692 14.3111C38.0292 15.1369 38.3971 15.4973 39.5683 15.8877C40.304 16.1279 40.4241 16.2255 40.4241 16.5934C40.4241 17.1639 39.7334 17.2916 38.9151 16.8862C38.6524 16.751 38.4046 16.676 38.322 16.6985C38.247 16.721 38.0743 16.9162 37.9391 17.1264L37.6914 17.5018L37.8791 17.6444C38.2244 17.9147 38.825 18.1699 39.3055 18.2525C40.3715 18.4252 41.385 17.8771 41.6928 16.9687C41.873 16.4132 41.7454 15.715 41.3775 15.3246C41.1748 15.0994 40.852 14.9342 40.1238 14.679C39.4631 14.4388 39.298 14.3111 39.298 14.0334C39.298 13.5604 39.9061 13.4177 40.6268 13.7256C40.837 13.8231 41.0697 13.8832 41.1448 13.8682C41.2124 13.8607 41.37 13.673 41.4901 13.4553L41.7079 13.0724L41.5427 12.9148C41.1523 12.5469 40.0262 12.3067 39.4256 12.4568Z" fill="white"/>
<path d="M34.2084 12.5472C34.1409 12.6373 32.1139 17.8099 32.0313 18.1027C32.0013 18.2228 32.0688 18.2378 32.6394 18.2378C33.3976 18.2378 33.4727 18.1777 33.7054 17.4195L33.8406 16.9615H34.9066H35.9652L36.1003 17.412C36.1754 17.6597 36.303 17.945 36.3856 18.0501C36.5207 18.2228 36.5808 18.2378 37.1738 18.2378C37.7444 18.2378 37.812 18.2228 37.7819 18.1027C37.7519 18.0126 36.1979 13.9736 35.6423 12.5472C35.6123 12.4871 35.4021 12.4571 34.9442 12.4571C34.5087 12.4571 34.261 12.4871 34.2084 12.5472ZM35.5898 15.9631C35.5748 15.9781 35.2595 15.9781 34.8916 15.9706L34.2159 15.948L34.5538 14.897L34.8841 13.846L35.252 14.8895C35.4547 15.4676 35.6048 15.948 35.5898 15.9631Z" fill="white"/>
<path d="M42.0545 12.5095C42.0245 12.532 42.002 12.7873 42.002 13.0725V13.583H42.7902H43.5785L43.5935 15.8878L43.616 18.2001L44.3142 18.2226L45.0049 18.2451V15.9103V13.583H45.7857C46.6565 13.583 46.6565 13.583 46.6565 13.02C46.6565 12.4119 46.8292 12.4569 44.3367 12.4569C43.1055 12.4569 42.077 12.4794 42.0545 12.5095Z" fill="white"/>
<path d="M48.1576 12.6073C48.0675 12.7724 45.9805 18.1402 45.9805 18.2003C45.9805 18.2228 46.2657 18.2378 46.6111 18.2378C47.2117 18.2378 47.2567 18.2228 47.4069 18.0351C47.4895 17.9225 47.6246 17.6372 47.6922 17.397L47.8198 16.9615H48.8783H49.9294L50.057 17.3519C50.1245 17.5696 50.2522 17.8624 50.3348 17.99L50.4849 18.2378H51.123C51.5885 18.2378 51.7612 18.2153 51.7612 18.1402C51.7536 18.0952 51.2732 16.7964 50.6801 15.2724L49.6065 12.4946L48.9234 12.4721C48.3003 12.4571 48.2327 12.4646 48.1576 12.6073ZM49.2162 14.8369C49.3888 15.37 49.5465 15.8279 49.5615 15.873C49.5765 15.918 49.3363 15.9405 48.9083 15.9255C48.5405 15.9105 48.2327 15.8805 48.2327 15.8504C48.2327 15.7904 48.8633 13.891 48.8858 13.8835C48.8933 13.8835 49.036 14.3114 49.2162 14.8369Z" fill="white"/>
<path d="M52.1367 15.3475V18.2378H52.7373C53.2929 18.2378 53.3379 18.2228 53.3754 18.0651C53.398 17.975 53.413 17.2018 53.398 16.3384C53.3829 15.4826 53.3829 14.7844 53.3829 14.7844C53.4055 14.7844 55.2298 17.0666 55.5451 17.4871C56.0856 18.2078 56.1306 18.2378 56.6862 18.2378H57.1667L57.1517 15.3625L57.1291 12.4946L56.5511 12.4721C55.9955 12.4496 55.9655 12.4571 55.9279 12.6298C55.8979 12.7199 55.8904 13.5156 55.9054 14.3865C55.9204 15.2574 55.9204 15.9706 55.9204 15.9631C55.9129 15.9555 55.4174 15.3324 54.8169 14.5742C54.2163 13.8235 53.6232 13.0727 53.5106 12.9076C53.2478 12.5472 53.0676 12.4571 52.5496 12.4571H52.1367V15.3475Z" fill="white"/>
<path d="M59.583 12.8475C59.5004 13.0652 59.005 14.334 58.4869 15.6703C57.9689 17.0066 57.541 18.1327 57.541 18.1702C57.541 18.2904 58.6896 18.2528 58.8698 18.1252C58.9674 18.0576 59.1026 17.8024 59.2001 17.4871L59.3728 16.9616H60.4239H61.4824L61.61 17.397C61.6776 17.6372 61.8127 17.9225 61.8953 18.0351C62.0454 18.2228 62.0905 18.2378 62.6911 18.2378C63.0364 18.2378 63.3217 18.2153 63.3217 18.1928C63.3217 18.0952 61.1971 12.6448 61.122 12.5472C61.077 12.4872 60.8292 12.4571 60.3863 12.4571H59.7257L59.583 12.8475ZM61.1446 15.9481C61.1446 15.9481 60.8217 15.9481 60.4314 15.9481C59.8233 15.9481 59.7257 15.933 59.7632 15.8354C59.7857 15.7754 59.9434 15.3024 60.1085 14.7844L60.4163 13.846L60.7767 14.897C60.9719 15.4751 61.1371 15.9481 61.1446 15.9481Z" fill="white"/>
<path d="M65.2363 12.5471C65.2138 12.5997 65.2062 13.8985 65.2138 15.4225L65.2363 18.2002H65.9119H66.5876V15.3474V12.4946L65.927 12.4721C65.4465 12.457 65.2588 12.4796 65.2363 12.5471Z" fill="white"/>
<path d="M67.1882 12.6298C67.1582 12.7274 67.1507 12.9751 67.1657 13.1778L67.1882 13.5457L67.999 13.5682L68.8023 13.5907V15.9105V18.2378H69.478H70.1536L70.1687 15.9255L70.1912 13.6208L70.9644 13.5982L71.7302 13.5757V13.0202V12.4571H69.478H67.2258L67.1882 12.6298Z" fill="white"/>
<path d="M0.800672 13.9059C0.628002 14.0936 0.282662 15.3698 0.0724558 16.6386C-0.0626771 17.4644 -0.0176328 17.7422 0.282662 17.8548C0.440318 17.9148 1.14601 17.9674 1.47634 17.9449C1.69405 17.9299 1.83669 17.6145 1.95681 16.8788C2.01687 16.4884 2.152 15.8503 2.2496 15.4449C2.54989 14.2663 2.51986 14.1837 1.73909 13.8909C1.19106 13.6882 1.00337 13.6882 0.800672 13.9059Z" fill="#509BC6"/>
<path d="M11.304 14.8819C11.0638 15.002 10.711 15.5876 10.7034 15.8804C10.6959 16.1957 10.8161 16.3233 11.3191 16.5486C12.0022 16.8488 12.2425 16.7813 12.5353 16.2107C12.7455 15.7978 12.6629 15.5426 12.1974 15.1897C11.6944 14.8143 11.5368 14.7618 11.304 14.8819Z" fill="#509BC6"/>
<path d="M3.87853 15.0095C3.79594 15.0996 3.67583 15.3999 3.61577 15.6701C3.12779 17.8398 3.15782 17.6896 3.29295 17.8998C3.4506 18.1401 3.61577 18.2001 4.21636 18.2752C4.95959 18.3578 5.01965 18.2527 5.44757 16.1581C5.57519 15.52 5.50012 15.3323 5.03466 15.0996C4.49413 14.8293 4.07372 14.7993 3.87853 15.0095Z" fill="#509BC6"/>
<path d="M18.5187 15.1596C17.6553 15.3848 16.9797 15.7902 16.2815 16.4734C14.2695 18.4704 14.2695 21.5184 16.289 23.5303C17.355 24.5964 18.5337 25.0468 20.0727 24.9793C21.4991 24.9117 22.6703 24.3261 23.6387 23.2C24.5846 22.0814 25.0126 20.4223 24.7048 18.9959C24.3069 17.134 22.7829 15.55 20.9736 15.1221C20.3054 14.9644 19.1943 14.9869 18.5187 15.1596Z" fill="white"/>
<path d="M7.0323 16.1657C6.85963 16.3909 6.5293 17.8549 6.59687 18.1176C6.65693 18.3654 6.94221 18.5005 7.48274 18.5681C7.97072 18.6206 8.24099 18.5306 8.3536 18.2828C8.49624 17.96 8.69143 16.8414 8.63888 16.6312C8.60134 16.466 8.48873 16.3759 8.10585 16.2033C7.50526 15.933 7.22749 15.9255 7.0323 16.1657Z" fill="#509BC6"/>
<path d="M10.5153 21.2482C10.3126 21.2782 10.0949 21.3608 10.0273 21.4284C9.63691 21.8187 10.4027 24.0635 11.4612 25.61C12.0318 26.4508 12.7825 27.2466 13.0002 27.2466C13.2179 27.2466 13.4807 27.0214 13.8035 26.5409C14.1413 26.0604 14.1263 25.9703 13.6759 25.4598C12.8876 24.574 12.3921 23.7106 12.0168 22.5845C11.8666 22.1416 11.7465 21.7287 11.7465 21.6611C11.7465 21.5935 11.6639 21.4509 11.5588 21.3533C11.3636 21.1506 11.1834 21.1356 10.5153 21.2482Z" fill="white"/>
<path d="M7.20453 21.5482C6.80664 21.6083 6.56641 21.811 6.56641 22.0737C6.56641 22.359 6.88172 23.6803 6.98682 23.8455C7.04688 23.9431 7.1745 24.0332 7.27961 24.0632C7.49732 24.1157 8.26308 23.8455 8.50331 23.6278C8.71352 23.4251 8.71352 23.2149 8.51082 22.359C8.30061 21.4506 8.188 21.3831 7.20453 21.5482Z" fill="#509BC6"/>
<path d="M62.5856 21.8188C61.7598 22.0965 61.2418 22.8173 61.3093 23.5905C61.3844 24.4313 61.7598 24.8142 62.9009 25.1896C63.6216 25.4223 63.7943 25.565 63.7868 25.9103C63.7717 26.4658 63.0661 26.601 62.2628 26.1956C62 26.0604 61.7523 25.9854 61.6697 26.0079C61.5946 26.0304 61.4219 26.2256 61.2868 26.4358L61.0391 26.8112L61.2267 26.9538C61.7823 27.3893 62.7658 27.6745 63.3513 27.5844C64.1696 27.4493 64.8603 26.9013 65.048 26.2331C65.1906 25.7226 65.1156 25.137 64.8678 24.8067C64.5976 24.4539 64.3423 24.3037 63.5465 24.0109C62.8108 23.7482 62.6456 23.6205 62.6456 23.3428C62.6456 23.2302 62.7057 23.0875 62.7808 23.0275C63.0585 22.7797 63.4039 22.8022 64.1997 23.1251C64.4099 23.2151 64.4549 23.2076 64.6051 23.08C64.6877 22.9974 64.8303 22.8022 64.9054 22.6521C65.048 22.3743 65.048 22.3743 64.8828 22.2167C64.4324 21.8038 63.2612 21.6011 62.5856 21.8188Z" fill="white"/>
<path d="M3.88635 21.8334C3.55602 21.8935 3.29326 22.0661 3.2257 22.2914C3.20317 22.3664 3.30828 22.9745 3.45843 23.6502C3.75121 24.979 3.87133 25.2192 4.2467 25.2192C4.547 25.2192 5.23017 24.9415 5.38782 24.7538C5.56049 24.5436 5.55299 24.3259 5.29023 23.1322C4.98993 21.7583 4.89234 21.6758 3.88635 21.8334Z" fill="#509BC6"/>
<path d="M32.1524 23.3203C32.1374 24.1761 32.1524 25.122 32.1824 25.4148C32.31 26.8713 33.4962 27.7571 35.0202 27.5469C35.9061 27.4268 36.4691 27.0364 36.837 26.2857L37.0847 25.7827V23.7932V21.8038L36.394 21.7813L35.6959 21.7587V23.5755C35.6959 25.5725 35.6508 25.8728 35.298 26.1656C34.9001 26.5034 34.0292 26.3833 33.7364 25.9403C33.6539 25.8202 33.6238 25.3322 33.5938 23.7932L33.5563 21.8038L32.8656 21.7813L32.1749 21.7587L32.1524 23.3203Z" fill="white"/>
<path d="M38.0605 21.8637C38.038 21.9087 38.0305 23.2075 38.038 24.7315L38.0605 27.5092L38.616 27.5318C39.0139 27.5468 39.1941 27.5243 39.2316 27.4567C39.2692 27.4041 39.2992 26.6234 39.2992 25.7225V24.0859L40.3803 25.4447C40.9809 26.1879 41.5664 26.9312 41.6791 27.0963C41.9343 27.4567 42.167 27.5618 42.6475 27.5318L43.0154 27.5092L43.0379 24.6339L43.0529 21.7661H42.4523C41.8968 21.7661 41.8517 21.7811 41.8142 21.9313C41.7917 22.0289 41.7766 22.8021 41.7917 23.6655C41.8067 24.5213 41.8067 25.2195 41.8067 25.2195C41.7842 25.2195 39.7497 22.6745 39.4569 22.2841C39.2842 22.0514 39.0665 21.8337 38.9764 21.8111C38.6761 21.7286 38.098 21.7586 38.0605 21.8637Z" fill="white"/>
<path d="M44.0664 21.8562C44.0438 21.9088 44.0363 23.2075 44.0438 24.7315L44.0664 27.5093H44.742H45.4177V24.6565V21.8037L44.757 21.7811C44.2766 21.7661 44.0889 21.7887 44.0664 21.8562Z" fill="white"/>
<path d="M45.8301 21.8187C45.8301 21.8563 46.3406 23.1551 46.9712 24.7091L48.1123 27.5469H48.6904C49.0583 27.5469 49.291 27.5168 49.3435 27.4493C49.4712 27.2916 51.6108 21.8938 51.5657 21.8262C51.5432 21.7962 51.2579 21.7662 50.9276 21.7662C50.4546 21.7662 50.3045 21.7962 50.1994 21.9013C50.0642 22.0365 49.8315 22.637 49.0507 24.8818C48.848 25.4598 48.6829 25.8727 48.6829 25.7977C48.6829 25.655 47.5267 22.3743 47.3616 22.059C47.309 21.9464 47.2039 21.8413 47.1439 21.8112C46.9712 21.7437 45.8301 21.7512 45.8301 21.8187Z" fill="white"/>
<path d="M51.9863 24.6566V27.5469H53.8181C55.8676 27.5469 55.74 27.5844 55.74 26.9838C55.74 26.3983 55.7851 26.4208 54.5088 26.4208H53.3752L53.3977 25.8202L53.4277 25.2271L54.2611 25.2046L55.1019 25.1821L55.1244 24.634L55.1469 24.0935H54.2611H53.3752V23.4929V22.8923H54.5238H55.6649V22.3293V21.7662H53.8256H51.9863V24.6566Z" fill="white"/>
<path d="M56.431 24.634L56.4536 27.5093H57.1292H57.8049L57.8274 26.4733L57.8499 25.4448H58.0676C58.3229 25.4448 58.4655 25.6175 59.0361 26.6235C59.2538 27.0063 59.5015 27.3742 59.5916 27.4343C59.7042 27.5168 59.9445 27.5469 60.4175 27.5469C61.0481 27.5469 61.0856 27.5394 61.0481 27.4042C60.9955 27.1865 59.8994 25.4148 59.7193 25.2571C59.5766 25.1295 59.5766 25.122 59.8694 24.9118C60.0346 24.7917 60.2598 24.5514 60.3724 24.3788C60.5526 24.1085 60.5826 23.9959 60.5826 23.5004C60.5826 22.9899 60.5601 22.8998 60.3649 22.622C59.8694 21.9464 59.2989 21.7662 57.6022 21.7662H56.416L56.431 24.634ZM58.9835 23.0274C59.2088 23.2151 59.2989 23.5529 59.2013 23.8607C59.0886 24.2436 58.8709 24.3713 58.3079 24.4088L57.8424 24.4313V23.643V22.8548L58.3529 22.8923C58.6382 22.9148 58.9235 22.9749 58.9835 23.0274Z" fill="white"/>
<path d="M65.8378 21.8562C65.8153 21.9088 65.8078 23.2075 65.8153 24.7315L65.8378 27.5093H66.5135H67.1892V24.6565V21.8037L66.5285 21.7811C66.048 21.7661 65.8604 21.7887 65.8378 21.8562Z" fill="white"/>
<path d="M67.7806 21.8713C67.7581 21.9238 67.7506 22.1716 67.7656 22.4118L67.7881 22.8548L68.5764 22.8773L69.3647 22.8998L69.3422 24.9794C69.3272 26.1205 69.3422 27.1715 69.3647 27.2991L69.4097 27.5469H70.0329C70.4833 27.5469 70.686 27.5168 70.7461 27.4418C70.8136 27.3667 70.8286 26.7211 70.8136 25.1145L70.7911 22.8923H71.5644H72.3301V22.4268C72.3301 22.1416 72.3601 21.9914 72.3977 22.0289C72.4352 22.074 72.8932 22.8397 73.4112 23.7331L74.3571 25.3697V26.4583V27.5469H75.0253C75.5658 27.5469 75.7009 27.5244 75.7385 27.4268C75.761 27.3592 75.7835 26.8487 75.7835 26.2856V25.2646L76.7294 23.6205C77.2474 22.7196 77.6528 21.9314 77.6303 21.8713C77.6003 21.7962 77.4426 21.7662 77.0297 21.7662C76.7219 21.7662 76.4141 21.7887 76.3466 21.8112C76.279 21.8413 75.9562 22.4193 75.6259 23.1025L75.0253 24.3487L74.4922 23.2151C74.1995 22.5845 73.8992 22.0064 73.8166 21.9163C73.6814 21.7737 73.5989 21.7662 70.7461 21.7662C68.3437 21.7662 67.8107 21.7812 67.7806 21.8713Z" fill="white"/>
<path d="M0.560191 22.1187C0.0722108 22.1788 0.0121517 22.3064 0.057196 23.1172C0.162299 24.949 1.29591 28.1547 2.63223 30.3768C3.6157 32.0135 5.61266 34.4233 6.28832 34.7912C6.52856 34.9188 6.58111 34.9263 6.76129 34.8212C7.01654 34.6861 7.61713 33.8903 7.61713 33.6876C7.61713 33.5975 7.29431 33.1846 6.84387 32.6966C5.76281 31.533 5.3499 31.0225 4.66673 29.9865C3.33042 27.9595 2.34695 25.482 1.94155 23.1172C1.76888 22.0737 1.65627 21.9911 0.560191 22.1187Z" fill="white"/>
<path d="M8.30858 24.6491C7.37766 25.0019 7.34012 25.1971 8.00077 26.3833C9.13439 28.4328 10.5007 29.9267 12.3851 31.188C13.6088 32.0063 13.7439 32.0063 14.1418 31.1805C14.5097 30.4072 14.4796 30.3171 13.6313 29.7466C11.807 28.5154 10.6133 27.2316 9.6524 25.4448C9.27703 24.7542 9.0443 24.4614 8.86412 24.4764C8.81908 24.4764 8.57133 24.559 8.30858 24.6491Z" fill="white"/>
<path d="M25.0562 26.3983C24.7334 26.5484 24.4106 26.9088 24.4181 27.1115C24.4181 27.3367 24.9211 28.2 25.1163 28.2976C25.3115 28.4027 25.5217 28.3352 25.8971 28.0424C26.5127 27.5694 26.5352 27.3592 26.0472 26.8112C25.6343 26.3532 25.3715 26.2406 25.0562 26.3983Z" fill="#3F7AA8"/>
<path d="M14.3361 27.1865C13.9082 27.667 13.8256 27.8622 13.9382 28.1099C14.0433 28.3426 14.6814 28.748 14.9442 28.748C15.2745 28.748 15.4021 28.6204 15.6123 28.0799C15.8601 27.4493 15.8301 27.2466 15.4472 26.9838C14.9967 26.6835 14.749 26.7286 14.3361 27.1865Z" fill="#3F7AA8"/>
<path d="M22.6169 27.7342C21.4533 28.1396 20.7551 28.2447 19.3737 28.2147L18.18 28.1847L18.0449 28.3724C17.9698 28.4775 17.8497 28.7702 17.7897 29.0255C17.647 29.5735 17.6996 29.7237 18.0749 29.9264C18.4353 30.1291 20.9127 30.1216 21.7686 29.9189C23.2475 29.581 24.0508 29.2432 24.2085 28.9129C24.276 28.7477 24.261 28.6576 24.0583 28.2522C23.8556 27.8393 23.5328 27.4565 23.3902 27.479C23.3676 27.479 23.0148 27.5991 22.6169 27.7342Z" fill="white"/>
<path d="M26.8211 29.1385C26.4757 29.4013 26.1529 29.7016 26.1004 29.8142C26.0178 29.9944 26.0253 30.0619 26.1904 30.3848C26.4757 30.9403 26.7385 31.2256 26.9787 31.2256C27.2265 31.2256 28.5853 30.2346 28.7054 29.9643C28.8406 29.6716 28.803 29.5815 28.3601 29.116C27.7895 28.5154 27.6469 28.5154 26.8211 29.1385Z" fill="#3F7AA8"/>
<path d="M7.59487 29.1308C7.47475 29.1608 7.19697 29.3485 6.97175 29.5362C6.34864 30.0692 6.37116 30.1443 7.47475 31.353C8.56332 32.5467 8.6459 32.5767 9.20895 31.9911C9.59183 31.5932 9.71946 31.3905 9.71946 31.1503C9.71946 30.9776 8.15041 29.1984 7.92519 29.1158C7.85762 29.0933 7.70748 29.1008 7.59487 29.1308Z" fill="#3F7AA8"/>
<path d="M21.1314 31.4582C20.3806 31.5783 20.2305 31.751 20.2305 32.5017C20.2305 32.8921 20.2605 32.9822 20.4482 33.1924L20.6659 33.4326L21.4392 33.35C22.5953 33.2224 22.7905 32.9972 22.5202 32.0813C22.3175 31.3756 22.1449 31.3005 21.1314 31.4582Z" fill="#3F7AA8"/>
<path d="M32.7062 32.359C32.3383 32.5392 32.1431 32.7869 32.0155 33.2299C31.9179 33.5602 31.4599 33.9731 30.0485 35.0016C29.7332 35.2343 29.4555 35.4896 29.4254 35.5722C29.3429 35.85 29.966 36.8634 30.2888 36.9685C30.3639 36.9911 30.544 36.9535 30.6792 36.886C31.0846 36.6833 32.3008 35.8124 32.8488 35.3394C33.1716 35.0617 33.4269 34.904 33.547 34.904C33.7947 34.904 34.3503 34.4761 34.5154 34.1533C34.7181 33.7629 34.6581 33.1248 34.3878 32.7719C33.9749 32.2239 33.3067 32.0662 32.7062 32.359Z" fill="#3F7AA8"/>
<path d="M25.425 33.7554C23.9986 34.3635 23.9536 34.4386 24.374 35.4296C24.5391 35.8124 24.6893 35.9551 24.937 35.9551C25.1472 35.9551 27.2718 35.0842 27.4595 34.9191C27.6397 34.7614 27.6172 34.4536 27.3844 33.9581C27.2043 33.5677 26.8589 33.2449 26.6487 33.2599C26.6112 33.2599 26.0556 33.4851 25.425 33.7554Z" fill="#3F7AA8"/>
<path d="M7.96236 34.8291C7.46687 35.3697 7.38429 35.5874 7.5945 35.8652C7.86476 36.2405 10.1545 37.712 10.5974 37.8021C10.9053 37.8621 11.1605 37.6219 11.4082 37.0513C11.6785 36.4132 11.6335 36.2405 11.138 35.9703C10.9278 35.8576 10.2821 35.4522 9.69656 35.0694C9.11849 34.694 8.58547 34.3787 8.5104 34.3787C8.44283 34.3787 8.19509 34.5814 7.96236 34.8291Z" fill="#3F7AA8"/>
<path d="M16.4087 34.7313C16.3186 34.8064 16.1985 35.0541 16.1384 35.2794C15.8607 36.3229 15.9733 36.428 17.5348 36.6307C18.9912 36.8184 18.9987 36.8184 19.2165 36.5932C19.3816 36.4355 19.4041 36.3454 19.4041 35.8274C19.4041 35.5046 19.3741 35.2043 19.3441 35.1668C19.1939 34.9566 18.9462 34.8815 17.9627 34.7463C16.6489 34.5737 16.6039 34.5737 16.4087 34.7313Z" fill="#3F7AA8"/>
<path d="M27.3839 36.488C25.7849 37.2538 23.5402 37.8694 21.6258 38.0646C20.327 38.1922 18.0447 38.1171 16.7985 37.9069C15.5598 37.6967 15.5073 37.7192 15.267 38.5075C15.0868 39.1006 15.1169 39.3483 15.3721 39.521C15.7625 39.7763 17.249 39.9489 19.3285 39.9865C21.4081 40.0315 22.2113 39.9715 23.6753 39.6937C25.8299 39.2883 29.0731 38.0421 29.2458 37.5541C29.2908 37.434 29.2458 37.2613 29.0806 36.946C28.8178 36.413 28.5251 36.1052 28.3073 36.1127C28.2248 36.1127 27.8043 36.2853 27.3839 36.488Z" fill="white"/>
</svg>
