<svg width="420" height="216" viewBox="0 0 420 216" fill="none" xmlns="http://www.w3.org/2000/svg">
<path d="M96.0662 0.417057C90.5933 1.02516 84.7556 2.07919 83.6205 2.64675C81.9583 3.49809 81.5935 4.47104 82.08 6.61966C82.7691 9.70069 83.7421 11.7682 84.7151 12.1331C85.2826 12.3358 87.2691 12.1736 90.0258 11.7277C92.4582 11.3223 96.4311 10.7953 98.8229 10.5926C101.863 10.3493 103.404 10.025 103.85 9.57907C104.701 8.76827 105.066 3.66025 104.417 2.07919C103.526 -0.0288801 102.35 -0.27212 96.0662 0.417057Z" fill="#34A7D4"/>
<path d="M110.456 0.700768C109.362 1.59265 108.916 3.7818 109.24 6.82229C109.565 9.579 110.578 10.5114 113.254 10.5114C114.267 10.5114 117.632 10.8763 120.754 11.3222C139.24 14.0384 155.577 21.3356 169.847 33.2137C171.631 34.6732 173.415 36.011 173.82 36.1731C174.874 36.5785 176.496 35.6056 178.685 33.2543C181.766 29.9705 181.401 29.0787 174.753 23.768C158.537 10.8357 140.253 3.13316 119.578 0.579151C113.213 -0.231647 111.551 -0.191109 110.456 0.700768Z" fill="#383026"/>
<path d="M53.0928 14.2006C39.0255 22.2681 26.7419 33.6598 17.661 46.9974C12.2692 54.9432 7.08008 64.9565 7.08008 67.4295C7.08008 68.8484 8.17465 69.8619 10.8908 70.8754C13.2827 71.7672 14.2556 71.8889 15.3907 71.4835C15.7151 71.3213 17.215 68.8078 18.6745 65.889C22.242 58.7539 24.796 54.6189 29.1338 48.8217C36.6742 38.8083 47.3767 29.4436 58.5657 23.0789C63.1062 20.4843 63.3494 19.9978 61.5657 16.1871C60.2684 13.3493 59.0927 12.1331 57.7549 12.1331C57.1873 12.1331 55.0793 13.0655 53.0928 14.2006Z" fill="#383026"/>
<path d="M95.2547 18.4167C91.6872 18.9032 88.3629 19.5113 87.8359 19.7951C86.6197 20.4437 86.3764 21.7815 86.9035 24.7815C87.2278 26.6868 87.6332 27.6192 88.5251 28.4706L89.7007 29.6462L96.4303 28.7544C102.714 27.903 103.241 27.7409 104.052 26.7679C104.782 25.8355 104.863 25.349 104.66 22.7545C104.417 19.6734 103.727 18.0518 102.471 17.7275C102.065 17.6464 98.8222 17.9302 95.2547 18.4167Z" fill="#34A7D4"/>
<path d="M110.173 18.7005C109.362 19.5518 109.24 20.1194 109.24 22.9977C109.24 26.9301 109.767 27.7409 112.565 28.1057C113.537 28.2273 115.97 28.5517 117.956 28.7949C131.497 30.4976 147.267 37.3488 157.685 46.0649C161.131 48.9432 161.699 49.1864 163.077 48.4567C163.685 48.1324 165.064 46.9568 166.118 45.8216C169.239 42.4974 168.834 41.5244 162.145 36.4164C148.564 26.0382 130.24 18.8626 114.916 17.9302C111.227 17.7275 111.024 17.7681 110.173 18.7005Z" fill="#383026"/>
<path d="M62.2546 29.403C50.5791 35.8894 39.3901 46.3892 31.4037 58.2674C28.2416 63.0511 23.7012 71.8482 23.7012 73.3077C23.7012 73.9563 24.1066 74.8077 24.593 75.2941C25.8903 76.4698 29.6605 77.8887 31.1605 77.7265C32.3362 77.6049 32.6199 77.1995 35.1334 72.4563C42.7144 58.0242 51.998 47.9703 65.4167 39.5785C67.5653 38.2407 69.4301 36.9434 69.5923 36.7002C70.8896 34.7948 67.5248 27.9436 65.2951 27.9436C65.0518 27.9436 63.6735 28.5922 62.2546 29.403Z" fill="#383026"/>
<path d="M97.3214 36.2948C91.4431 37.1056 90.3486 38.1596 91.4026 42.0514C92.6999 46.7946 93.3485 47.2405 98.416 46.5919C102.348 46.0649 104.132 45.4162 104.538 44.3622C104.659 43.9973 104.781 42.4163 104.781 40.9163C104.781 38.6055 104.619 37.9569 103.889 37.1056C102.632 35.7678 101.943 35.6867 97.3214 36.2948Z" fill="#34A7D4"/>
<path d="M111.389 35.9301C109.767 36.2138 109.24 37.5517 109.24 41.1597C109.24 44.2407 109.321 44.5651 110.254 45.2948C110.862 45.7812 112.24 46.1866 113.781 46.3488C117.673 46.7947 123.591 48.1731 127.443 49.5109C133.888 51.7811 138.956 54.5784 146.699 60.1729C147.753 60.9432 149.01 61.5918 149.456 61.5918C150.388 61.5918 154.604 57.7405 155.091 56.4027C155.658 54.9838 154.888 53.7676 152.131 51.5784C141.672 43.2678 128.172 37.5111 116.335 36.2544C114.997 36.1328 113.537 35.9706 113.092 35.8895C112.646 35.849 111.875 35.849 111.389 35.9301Z" fill="#383026"/>
<path d="M68.4583 46.8352C57.5125 53.6865 48.0667 64.0647 42.3101 75.4564C39.7966 80.4833 40.1209 81.4563 44.9046 83.24C48.5937 84.6589 49.0802 84.4157 51.4721 79.9563C57.0666 69.6186 64.8502 61.1458 74.1744 55.3486C77.0122 53.5648 77.6203 52.8757 77.6203 51.4973C77.6203 50.3217 75.8771 46.3488 74.9041 45.2947C73.8095 44.0785 72.269 44.4434 68.4583 46.8352Z" fill="#383026"/>
<path d="M98.9427 54.2946C96.7535 54.7 95.3752 56.2811 95.74 58.0648C96.186 60.5378 97.4832 63.4161 98.3346 63.9431C98.9427 64.308 99.8346 64.389 101.172 64.2269C104.051 63.8215 104.78 62.7269 104.78 58.8756C104.78 56.2405 104.659 55.754 103.767 54.9027C102.753 53.8487 101.821 53.7271 98.9427 54.2946Z" fill="#34A7D4"/>
<path d="M110.578 54.3757C109.321 54.9838 108.673 57.173 108.957 60.1324C109.24 63.0512 109.93 63.7809 112.767 64.1863C119.497 65.1593 126.875 68.0782 132.429 71.97C134.335 73.3078 136.159 74.2402 136.726 74.2402C138.145 74.2402 142.483 69.7808 142.483 68.3214C142.483 66.7809 140.091 64.6728 134.983 61.6323C129.591 58.4297 124.281 56.3216 118.119 54.9433C112.97 53.8081 111.916 53.7271 110.578 54.3757Z" fill="#383026"/>
<path d="M78.9163 61.6321C76.3218 62.9294 74.7812 64.551 74.7812 65.9699C74.7812 67.4293 77.4163 70.7941 79.3217 71.7265C80.4163 72.2536 80.619 72.213 82.3217 71.3211C84.4297 70.186 85.3216 69.132 85.3216 67.7942C85.3216 66.2537 82.9298 61.7537 81.8352 61.2267C80.619 60.6592 80.9838 60.6186 78.9163 61.6321Z" fill="#509BC6"/>
<path d="M212.902 67.2673C207.591 68.6051 204.672 72.3348 205.037 77.2806C205.361 81.74 207.348 83.6859 213.672 85.794C217.645 87.0913 218.294 87.6183 218.294 89.6047C218.294 92.6858 214.564 93.375 210.145 91.1858C208.726 90.4561 207.388 90.0507 206.942 90.1723C206.537 90.2939 205.605 91.348 204.875 92.4831L203.537 94.5101L204.551 95.2803C206.415 96.7398 209.659 98.1181 212.253 98.5641C218.01 99.4965 223.483 96.5371 225.145 91.6317C226.118 88.6318 225.429 84.8616 223.442 82.7535C222.348 81.5373 220.604 80.6454 216.672 79.2671C213.105 77.9698 212.213 77.2806 212.213 75.7807C212.213 73.2266 215.496 72.4564 219.388 74.1185C220.523 74.6455 221.78 74.9699 222.185 74.8888C222.55 74.8482 223.402 73.8347 224.05 72.6591L225.226 70.5916L224.334 69.7402C222.226 67.7538 216.145 66.4565 212.902 67.2673Z" fill="#383026"/>
<path d="M184.726 67.7537C184.361 68.2402 173.415 96.1721 172.969 97.7532C172.807 98.4018 173.172 98.4829 176.253 98.4829C180.348 98.4829 180.753 98.1586 182.01 94.0641L182.739 91.5911H188.496H194.212L194.942 94.0235C195.347 95.3613 196.037 96.9019 196.482 97.4694C197.212 98.4018 197.536 98.4829 200.739 98.4829C203.82 98.4829 204.185 98.4018 204.023 97.7532C203.861 97.2667 195.469 75.4563 192.469 67.7537C192.307 67.4294 191.172 67.2672 188.699 67.2672C186.347 67.2672 185.01 67.4294 184.726 67.7537ZM192.185 86.1993C192.104 86.2804 190.401 86.2804 188.415 86.2399L184.766 86.1183L186.591 80.4427L188.374 74.7671L190.361 80.4021C191.456 83.5237 192.266 86.1183 192.185 86.1993Z" fill="#383026"/>
<path d="M227.09 67.5511C226.928 67.6727 226.807 69.0511 226.807 70.5916V73.3483H231.063H235.32L235.401 85.794L235.523 98.2803L239.293 98.4019L243.023 98.5236V85.9157V73.3483H247.239C251.941 73.3483 251.941 73.3483 251.941 70.3078C251.941 67.0241 252.874 67.2673 239.415 67.2673C232.766 67.2673 227.212 67.3889 227.09 67.5511Z" fill="#383026"/>
<path d="M260.05 68.078C259.563 68.9699 248.293 97.9559 248.293 98.2802C248.293 98.4018 249.833 98.4829 251.698 98.4829C254.942 98.4829 255.185 98.4018 255.996 97.3883C256.441 96.7802 257.171 95.2397 257.536 93.9424L258.225 91.5911H263.941H269.617L270.306 93.6992C270.671 94.8749 271.36 96.4559 271.806 97.1451L272.617 98.4829H276.063C278.576 98.4829 279.509 98.3613 279.509 97.9559C279.468 97.7127 276.874 90.6993 273.671 82.4697L267.874 67.4699L264.185 67.3483C260.82 67.2672 260.455 67.3078 260.05 68.078ZM265.766 80.1184C266.698 82.9967 267.549 85.4696 267.63 85.7129C267.712 85.9561 266.414 86.0777 264.104 85.9966C262.117 85.9156 260.455 85.7534 260.455 85.5912C260.455 85.2669 263.86 75.0103 263.982 74.9698C264.022 74.9698 264.793 77.2806 265.766 80.1184Z" fill="#383026"/>
<path d="M281.535 82.8751V98.4829H284.778C287.778 98.4829 288.022 98.4018 288.224 97.5505C288.346 97.064 288.427 92.8884 288.346 88.2263C288.265 83.6048 288.265 79.8346 288.265 79.8346C288.386 79.8346 298.238 92.1587 299.94 94.4289C302.859 98.3208 303.102 98.4829 306.102 98.4829H308.697L308.616 82.9561L308.494 67.4699L305.373 67.3483C302.373 67.2267 302.21 67.2672 302.008 68.1996C301.846 68.6861 301.805 72.9833 301.886 77.686C301.967 82.3886 301.967 86.2399 301.967 86.1993C301.927 86.1588 299.251 82.794 296.008 78.6995C292.765 74.6455 289.562 70.5915 288.954 69.6996C287.535 67.7537 286.562 67.2672 283.765 67.2672H281.535V82.8751Z" fill="#383026"/>
<path d="M321.751 69.3754C321.306 70.5511 318.63 77.4023 315.833 84.6184C313.035 91.8345 310.725 97.9155 310.725 98.1182C310.725 98.7668 316.927 98.5641 317.9 97.8749C318.427 97.5101 319.157 96.1317 319.684 94.429L320.616 91.5913H326.292H332.008L332.697 93.9426C333.062 95.2398 333.792 96.7804 334.238 97.3885C335.049 98.4019 335.292 98.483 338.535 98.483C340.4 98.483 341.94 98.3614 341.94 98.2398C341.94 97.7128 330.468 68.2808 330.062 67.7538C329.819 67.4295 328.481 67.2673 326.089 67.2673H322.522L321.751 69.3754ZM330.184 86.1184C330.184 86.1184 328.441 86.1184 326.332 86.1184C323.049 86.1184 322.522 86.0373 322.724 85.5103C322.846 85.186 323.697 82.6319 324.589 79.8347L326.251 74.7672L328.197 80.4428C329.251 83.5644 330.143 86.1184 330.184 86.1184Z" fill="#383026"/>
<path d="M352.277 67.7538C352.156 68.0375 352.115 75.0509 352.156 83.2805L352.277 98.2803H355.926H359.575V82.8751V67.47L356.007 67.3484C353.413 67.2673 352.399 67.3889 352.277 67.7538Z" fill="#383026"/>
<path d="M362.818 68.1996C362.656 68.7267 362.616 70.0645 362.697 71.159L362.818 73.1455L367.197 73.2671L371.534 73.3887V85.9156V98.4829H375.183H378.832L378.913 85.9966L379.034 73.5509L383.21 73.4293L387.345 73.3077V70.3077V67.2672H375.183H363.021L362.818 68.1996Z" fill="#383026"/>
<path d="M4.32363 75.0915C3.39121 76.105 1.52638 82.9968 0.391261 89.848C-0.338457 94.3074 -0.0952173 95.8073 1.52638 96.4154C2.37771 96.7398 6.18846 97.0235 7.97222 96.9019C9.14787 96.8208 9.91813 95.1182 10.5668 91.1453C10.8911 89.0372 11.6208 85.5913 12.1478 83.4021C13.7694 77.0374 13.6073 76.5915 9.39111 75.0104C6.4317 73.9158 5.4182 73.9158 4.32363 75.0915Z" fill="#509BC6"/>
<path d="M61.0399 80.3617C59.7426 81.0103 57.8372 84.1724 57.7967 85.7535C57.7561 87.4561 58.4048 88.1453 61.1209 89.3615C64.8101 90.9831 66.1073 90.6182 67.6884 87.5372C68.8235 85.3075 68.3776 83.9292 65.8641 82.0238C63.1479 79.9968 62.2966 79.713 61.0399 80.3617Z" fill="#509BC6"/>
<path d="M20.9444 81.0508C20.4985 81.5372 19.8499 83.1588 19.5255 84.6183C16.8904 96.3343 17.0526 95.5235 17.7823 96.6586C18.6337 97.9559 19.5255 98.2802 22.7687 98.6856C26.7822 99.1315 27.1065 98.564 29.4173 87.2534C30.1064 83.8075 29.701 82.794 27.1876 81.5372C24.2687 80.0778 21.9985 79.9156 20.9444 81.0508Z" fill="#509BC6"/>
<path d="M99.9978 81.8617C95.3357 83.0778 91.6871 85.267 87.9169 88.9561C77.0522 99.7397 77.0522 116.199 87.9574 127.064C93.7141 132.82 100.079 135.253 108.39 134.888C116.092 134.523 122.416 131.361 127.646 125.28C132.754 119.239 135.065 110.28 133.403 102.578C131.254 92.5236 123.024 83.9697 113.254 81.659C109.646 80.8076 103.646 80.9292 99.9978 81.8617Z" fill="#383026"/>
<path d="M37.9721 87.2939C37.0397 88.5101 35.2559 96.4154 35.6208 97.8343C35.9451 99.1721 37.4856 99.9018 40.4045 100.267C43.0396 100.55 44.499 100.064 45.1071 98.7262C45.8773 96.983 46.9314 90.9425 46.6476 89.8074C46.4449 88.9155 45.8368 88.4291 43.7693 87.4966C40.5261 86.0372 39.0261 85.9967 37.9721 87.2939Z" fill="#509BC6"/>
<path d="M56.7817 114.74C55.6871 114.902 54.5115 115.348 54.1466 115.712C52.0386 117.821 56.1736 129.942 61.8897 138.293C64.9708 142.834 69.0248 147.131 70.2004 147.131C71.3761 147.131 72.795 145.915 74.5382 143.32C76.3625 140.726 76.2814 140.239 73.849 137.482C69.5923 132.699 66.9167 128.037 64.8897 121.956C64.0789 119.564 63.4303 117.334 63.4303 116.969C63.4303 116.604 62.9843 115.834 62.4168 115.307C61.3627 114.212 60.3898 114.131 56.7817 114.74Z" fill="#383026"/>
<path d="M38.9049 116.361C36.7563 116.685 35.459 117.78 35.459 119.199C35.459 120.739 37.1617 127.874 37.7292 128.766C38.0535 129.293 38.7427 129.78 39.3103 129.942C40.4859 130.226 44.621 128.766 45.9183 127.591C47.0534 126.496 47.0534 125.361 45.9588 120.739C44.8237 115.834 44.2156 115.469 38.9049 116.361Z" fill="#509BC6"/>
<path d="M337.966 117.821C333.507 119.32 330.71 123.212 331.075 127.388C331.48 131.928 333.507 133.996 339.669 136.023C343.561 137.28 344.493 138.05 344.453 139.915C344.372 142.915 340.561 143.644 336.223 141.455C334.804 140.726 333.467 140.32 333.021 140.442C332.615 140.563 331.683 141.617 330.953 142.753L329.615 144.78L330.629 145.55C333.629 147.901 338.939 149.442 342.102 148.955C346.52 148.225 350.25 145.266 351.264 141.658C352.034 138.901 351.628 135.739 350.291 133.955C348.831 132.05 347.453 131.239 343.156 129.658C339.183 128.239 338.291 127.55 338.291 126.05C338.291 125.442 338.615 124.672 339.02 124.347C340.52 123.01 342.385 123.131 346.683 124.874C347.818 125.361 348.061 125.32 348.872 124.631C349.318 124.185 350.088 123.131 350.493 122.32C351.264 120.82 351.264 120.82 350.372 119.969C347.939 117.739 341.615 116.645 337.966 117.821Z" fill="#383026"/>
<path d="M20.9863 117.901C19.2025 118.226 17.7836 119.158 17.4188 120.374C17.2971 120.78 17.8647 124.064 18.6755 127.712C20.2566 134.888 20.9052 136.185 22.9322 136.185C24.5538 136.185 28.2429 134.685 29.0942 133.671C30.0267 132.536 29.9861 131.361 28.5672 124.915C26.9456 117.496 26.4186 117.05 20.9863 117.901Z" fill="#509BC6"/>
<path d="M173.618 125.928C173.537 130.55 173.618 135.658 173.78 137.239C174.469 145.104 180.874 149.887 189.104 148.752C193.888 148.104 196.928 145.996 198.915 141.942L200.252 139.225V128.482V117.739L196.523 117.618L192.753 117.496V127.307C192.753 138.09 192.509 139.712 190.604 141.293C188.455 143.117 183.753 142.469 182.172 140.077C181.726 139.428 181.564 136.793 181.401 128.482L181.199 117.739L177.469 117.618L173.739 117.496L173.618 125.928Z" fill="#383026"/>
<path d="M205.524 118.064C205.402 118.307 205.361 125.32 205.402 133.55L205.524 148.55L208.523 148.671C210.672 148.753 211.645 148.631 211.848 148.266C212.05 147.982 212.213 143.766 212.213 138.901V130.064L218.05 137.401C221.294 141.415 224.456 145.428 225.064 146.32C226.442 148.266 227.699 148.834 230.293 148.671L232.28 148.55L232.401 133.023L232.483 117.537H229.239C226.239 117.537 225.996 117.618 225.793 118.429C225.672 118.956 225.591 123.131 225.672 127.793C225.753 132.415 225.753 136.185 225.753 136.185C225.631 136.185 214.645 122.442 213.064 120.334C212.132 119.077 210.956 117.902 210.469 117.78C208.848 117.334 205.726 117.496 205.524 118.064Z" fill="#383026"/>
<path d="M237.955 118.023C237.834 118.307 237.793 125.32 237.834 133.55L237.955 148.55H241.604H245.252V133.145V117.739L241.685 117.618C239.09 117.537 238.077 117.658 237.955 118.023Z" fill="#383026"/>
<path d="M247.482 117.821C247.482 118.023 250.239 125.037 253.644 133.428L259.807 148.752H262.928C264.915 148.752 266.171 148.59 266.455 148.225C267.144 147.374 278.698 118.226 278.455 117.861C278.333 117.699 276.793 117.537 275.009 117.537C272.455 117.537 271.644 117.699 271.077 118.266C270.347 118.996 269.09 122.239 264.874 134.361C263.779 137.482 262.888 139.712 262.888 139.307C262.888 138.536 256.644 120.82 255.753 119.118C255.469 118.51 254.901 117.942 254.577 117.78C253.644 117.415 247.482 117.456 247.482 117.821Z" fill="#383026"/>
<path d="M280.725 133.145V148.752H290.616C301.684 148.752 300.995 148.955 300.995 145.712C300.995 142.55 301.238 142.671 294.346 142.671H288.224L288.346 139.428L288.508 136.226L293.008 136.104L297.549 135.982L297.67 133.023L297.792 130.104H293.008H288.224V126.861V123.618H294.427H300.589V120.577V117.537H290.657H280.725V133.145Z" fill="#383026"/>
<path d="M304.724 133.023L304.845 148.55H308.494H312.142L312.264 142.955L312.386 137.401H313.561C314.94 137.401 315.71 138.334 318.791 143.766C319.967 145.834 321.304 147.82 321.791 148.144C322.399 148.59 323.696 148.752 326.25 148.752C329.656 148.752 329.858 148.712 329.656 147.982C329.372 146.807 323.453 137.239 322.48 136.388C321.71 135.699 321.71 135.658 323.291 134.523C324.183 133.874 325.399 132.577 326.007 131.645C326.98 130.185 327.142 129.577 327.142 126.901C327.142 124.145 327.021 123.658 325.967 122.158C323.291 118.51 320.21 117.537 311.048 117.537H304.643L304.724 133.023ZM318.507 124.347C319.723 125.361 320.21 127.185 319.683 128.847C319.075 130.915 317.899 131.604 314.859 131.807L312.345 131.928V127.672V123.415L315.102 123.618C316.642 123.739 318.183 124.064 318.507 124.347Z" fill="#383026"/>
<path d="M355.52 118.023C355.398 118.307 355.357 125.32 355.398 133.55L355.52 148.55H359.168H362.817V133.145V117.739L359.249 117.618C356.655 117.537 355.641 117.658 355.52 118.023Z" fill="#383026"/>
<path d="M366.02 118.104C365.898 118.388 365.858 119.726 365.939 121.023L366.06 123.415L370.317 123.537L374.574 123.658L374.452 134.888C374.371 141.05 374.452 146.725 374.574 147.415L374.817 148.752H378.182C380.614 148.752 381.709 148.59 382.033 148.185C382.398 147.779 382.479 144.293 382.398 135.618L382.276 123.618H386.452H390.587V121.104C390.587 119.564 390.749 118.753 390.952 118.956C391.154 119.199 393.627 123.334 396.425 128.158L401.533 136.996V142.874V148.752H405.141C408.06 148.752 408.789 148.631 408.992 148.104C409.114 147.739 409.235 144.982 409.235 141.942V136.428L414.343 127.55C417.141 122.685 419.33 118.429 419.208 118.104C419.046 117.699 418.195 117.537 415.965 117.537C414.303 117.537 412.641 117.658 412.276 117.78C411.911 117.942 410.168 121.064 408.384 124.753L405.141 131.482L402.262 125.361C400.681 121.956 399.06 118.834 398.614 118.348C397.884 117.577 397.438 117.537 382.033 117.537C369.06 117.537 366.182 117.618 366.02 118.104Z" fill="#383026"/>
<path d="M3.02659 119.442C0.391501 119.766 0.0671817 120.456 0.310421 124.834C0.877979 134.726 6.9995 152.036 14.2156 164.036C19.5263 172.874 30.3099 185.887 33.9585 187.873C35.2558 188.563 35.5396 188.603 36.5125 188.036C37.8909 187.306 41.1341 183.009 41.1341 181.914C41.1341 181.428 39.3909 179.198 36.9585 176.563C31.1207 170.279 28.891 167.522 25.2019 161.928C17.9858 150.982 12.6751 137.604 10.4859 124.834C9.55351 119.199 8.94541 118.753 3.02659 119.442Z" fill="#383026"/>
<path d="M44.8636 133.104C39.8366 135.009 39.6339 136.063 43.2014 142.469C49.323 153.536 56.7012 161.603 66.8767 168.414C73.4847 172.833 74.2144 172.833 76.3631 168.374C78.3495 164.198 78.1873 163.712 73.6063 160.631C63.7552 153.982 57.3093 147.05 52.1202 137.401C50.0932 133.672 48.8365 132.09 47.8635 132.172C47.6203 132.172 46.2825 132.617 44.8636 133.104Z" fill="#383026"/>
<path d="M135.308 142.55C133.565 143.361 131.821 145.307 131.862 146.401C131.862 147.617 134.578 152.279 135.632 152.806C136.686 153.374 137.821 153.009 139.848 151.428C143.173 148.874 143.294 147.739 140.659 144.78C138.429 142.307 137.011 141.699 135.308 142.55Z" fill="#3F7AA8"/>
<path d="M77.4164 146.806C75.1056 149.401 74.6597 150.455 75.2678 151.793C75.8354 153.05 79.2813 155.239 80.7001 155.239C82.4839 155.239 83.1731 154.55 84.3082 151.631C85.646 148.225 85.4839 147.131 83.4163 145.712C80.9839 144.09 79.6461 144.334 77.4164 146.806Z" fill="#3F7AA8"/>
<path d="M122.132 149.766C115.849 151.955 112.079 152.523 104.619 152.36L98.1734 152.198L97.4437 153.212C97.0383 153.779 96.3896 155.36 96.0653 156.739C95.2951 159.698 95.5788 160.509 97.6058 161.603C99.5517 162.698 112.93 162.658 117.551 161.563C125.538 159.739 129.876 157.914 130.727 156.131C131.092 155.239 131.011 154.752 129.916 152.563C128.822 150.333 127.078 148.266 126.308 148.387C126.186 148.387 124.281 149.036 122.132 149.766Z" fill="#383026"/>
<path d="M144.834 157.347C142.969 158.766 141.226 160.387 140.942 160.995C140.496 161.968 140.537 162.333 141.429 164.076C142.969 167.076 144.388 168.617 145.685 168.617C147.023 168.617 154.361 163.266 155.01 161.806C155.739 160.225 155.537 159.739 153.145 157.225C150.064 153.982 149.294 153.982 144.834 157.347Z" fill="#3F7AA8"/>
<path d="M41.0131 157.306C40.3644 157.469 38.8644 158.482 37.6482 159.496C34.2834 162.374 34.4051 162.779 40.3644 169.306C46.2427 175.752 46.6886 175.914 49.7291 172.752C51.7967 170.603 52.4858 169.509 52.4858 168.212C52.4858 167.279 44.013 157.671 42.7968 157.225C42.432 157.104 41.6212 157.144 41.0131 157.306Z" fill="#3F7AA8"/>
<path d="M114.105 169.874C110.051 170.522 109.24 171.455 109.24 175.509C109.24 177.617 109.402 178.103 110.416 179.238L111.592 180.536L115.767 180.09C122.01 179.401 123.064 178.184 121.605 173.238C120.51 169.428 119.578 169.022 114.105 169.874Z" fill="#3F7AA8"/>
<path d="M176.618 174.738C174.631 175.711 173.577 177.049 172.888 179.441C172.361 181.225 169.888 183.455 162.266 189.008C160.564 190.265 159.064 191.644 158.902 192.09C158.456 193.589 161.82 199.062 163.564 199.63C163.969 199.752 164.942 199.549 165.672 199.184C167.861 198.089 174.428 193.387 177.388 190.833C179.131 189.333 180.509 188.481 181.158 188.481C182.496 188.481 185.496 186.171 186.388 184.427C187.482 182.319 187.158 178.874 185.698 176.968C183.469 174.009 179.861 173.157 176.618 174.738Z" fill="#3F7AA8"/>
<path d="M137.294 182.279C129.592 185.563 129.349 185.968 131.619 191.319C132.511 193.387 133.321 194.157 134.659 194.157C135.794 194.157 147.267 189.454 148.281 188.563C149.254 187.711 149.132 186.049 147.875 183.374C146.902 181.265 145.037 179.522 143.902 179.603C143.7 179.603 140.7 180.819 137.294 182.279Z" fill="#3F7AA8"/>
<path d="M42.9983 188.076C40.3227 190.995 39.8767 192.171 41.0118 193.671C42.4713 195.698 54.8359 203.644 57.2278 204.13C58.8899 204.454 60.2683 203.157 61.6061 200.076C63.0655 196.63 62.8223 195.698 60.1467 194.238C59.0115 193.63 55.5251 191.441 52.363 189.373C49.2414 187.346 46.3631 185.644 45.9577 185.644C45.5928 185.644 44.255 186.738 42.9983 188.076Z" fill="#3F7AA8"/>
<path d="M88.6054 187.549C88.1189 187.954 87.4703 189.292 87.146 190.508C85.646 196.143 86.2541 196.711 94.6864 197.806C102.551 198.819 102.592 198.819 103.767 197.603C104.659 196.752 104.781 196.265 104.781 193.468C104.781 191.725 104.619 190.103 104.456 189.9C103.646 188.765 102.308 188.36 96.9972 187.63C89.9027 186.698 89.6594 186.698 88.6054 187.549Z" fill="#3F7AA8"/>
<path d="M147.875 197.035C139.24 201.17 127.118 204.495 116.781 205.549C109.767 206.238 97.4432 205.833 90.7136 204.697C84.0245 203.562 83.7407 203.684 82.4435 207.941C81.4705 211.143 81.6327 212.481 83.011 213.413C85.1191 214.792 93.146 215.724 104.376 215.927C115.605 216.17 119.943 215.846 127.848 214.346C139.483 212.157 156.996 205.427 157.929 202.792C158.172 202.143 157.929 201.211 157.037 199.508C155.618 196.63 154.037 194.968 152.861 195.008C152.415 195.008 150.145 195.941 147.875 197.035Z" fill="#383026"/>
</svg>
